<svg width="34" height="42" viewBox="0 0 34 42" fill="none" xmlns="http://www.w3.org/2000/svg">
<g id="&#208;&#145;&#208;&#181;&#208;&#187;&#208;&#179;&#208;&#190;&#209;&#128;&#208;&#190;&#208;&#180;&#209;&#129;&#208;&#186;&#208;&#176;&#209;&#143;_&#208;&#190;&#208;&#177;&#208;&#187;&#208;&#176;&#209;&#129;&#209;&#130;&#209;&#140; 1" clip-path="url(#clip0_16_286)">
<path id="Vector" d="M0 0V30.762C0 36.3 3.15333 38.181 8.36111 38.4C15.5278 38.7 16.7222 42 16.7222 42C16.7222 42 17.9167 38.7 25.0833 38.4C30.2911 38.181 33.4444 36.3 33.4444 30.762V0H0ZM30.4583 35.649C29.3236 36.588 27.5499 37.095 25.0326 37.2C20.3444 37.395 17.9286 38.811 16.7222 39.99C15.5128 38.811 13.1001 37.395 8.41187 37.2C5.89757 37.095 4.12382 36.588 2.98611 35.649C2.58597 35.319 2.26347 34.917 1.99771 34.452C9.59437 33.126 17.0895 33.219 17.0895 33.219C17.1642 32.943 17.191 32.595 17.3135 32.244C17.5255 31.704 18.2213 30.972 19.4456 30.972L20.5653 31.056C20.5653 29.706 21.1775 28.503 22.136 27.705C22.2077 27.633 22.2495 27.597 22.2495 27.597C21.6433 27.612 21.2551 27.528 21.2551 27.528C19.9592 27.405 19.4545 26.106 18.926 24.471C18.7438 23.907 18.5587 23.301 18.3377 22.692C17.6181 20.256 14.9097 19.98 14.3214 20.388C11.8549 18.702 9.68993 20.403 9.40924 21.042C9.73472 21.042 10.0005 21.309 10.0005 21.636C10.0005 21.861 9.87507 22.056 9.68993 22.155L9.28382 22.413C9.06285 22.554 8.93146 22.797 8.93146 23.058L6.93674 24.696C6.82625 24.801 6.72472 25.032 6.84417 25.233L7.90125 26.223C7.94007 25.896 7.92812 25.59 8.43875 25.422C9.35847 25.146 9.60632 25.554 9.69292 25.812C9.75562 26.025 9.74965 26.214 9.69292 26.376L9.62722 26.37C9.32861 26.202 8.95535 26.112 8.56417 26.223C8.17 26.337 7.89528 26.637 7.69222 26.745C7.48917 26.859 7.25326 26.898 7.10694 26.844C7.03528 26.814 6.95764 26.76 6.91285 26.637C6.86507 26.514 6.86806 26.352 6.88 26.169C6.72771 26.268 6.60528 26.424 6.55451 26.634C6.50076 26.841 6.57542 27.117 6.76354 27.291C6.95167 27.462 7.20549 27.528 7.42944 27.516C7.6534 27.504 7.85944 27.429 8.03861 27.315C8.0625 27.3 8.08042 27.285 8.10431 27.27C8.07743 27.369 8.05653 27.483 8.05653 27.597C8.05653 28.017 8.26854 28.299 8.50743 28.416C8.6 28.461 8.75826 28.398 8.75528 28.242C8.75528 27.591 9.10465 27.465 9.66604 27.264C10.111 27.105 10.8247 26.841 11.2308 26.688C11.3293 26.658 11.5443 26.568 11.5443 26.568C11.5443 26.565 11.5473 26.565 11.5473 26.565C11.9713 26.37 12.3297 26.061 12.5865 25.677C12.9538 24.99 12.9985 24.609 12.9985 24.609C13.0314 24.339 13.0135 24.198 13.0135 24.198C13.6107 24.198 13.7958 24.651 13.757 25.011C13.6137 26.004 12.9806 26.595 12.2162 27.354C11.9116 27.657 11.5025 27.969 11.2815 28.29C10.5738 29.316 10.4574 30.474 12.0669 31.434C12.1326 31.473 12.2878 31.596 12.3476 31.662C12.7835 32.202 12.3715 32.652 12.1087 32.652C11.7414 32.088 11.4129 32.016 11.2397 31.941C10.747 31.725 10.0841 31.572 9.74667 30.942C9.10167 31.32 8.57611 31.521 7.50111 31.521L4.945 31.524C4.20743 31.536 3.51764 32.049 3.44299 32.76C3.42806 32.901 3.44299 33.324 3.44299 33.324C2.81889 33.396 2.20076 33.474 1.58562 33.558C1.31986 32.775 1.1825 31.848 1.1825 30.762V1.2H32.2381V30.762C32.2381 31.851 32.1007 32.775 31.8349 33.561C30.8017 33.42 29.894 33.288 28.81 33.177C28.81 33.177 28.9802 32.838 29.1922 32.205C29.1922 32.205 29.8581 31.989 30.2792 31.542C30.5867 31.227 30.8167 30.858 30.9719 30.516C31.0765 30.315 31.1451 30.102 31.178 29.871C31.178 29.868 31.178 29.868 31.178 29.865C31.2347 29.466 31.1869 29.022 31.0287 28.533C30.6017 27.441 29.7954 26.61 28.6249 26.061C27.6992 25.653 25.4865 25.473 25.1849 25.458C22.4645 25.338 21.7747 24.849 21.7717 24.849L21.7359 24.819C21.4015 24.576 21.2014 24.183 21.2014 23.769C21.2014 23.058 21.7777 22.479 22.5153 22.476C22.5392 22.473 22.999 22.461 23.5753 22.956C23.5992 24.051 24.4891 24.933 25.588 24.933C26.7018 24.933 27.6006 24.027 27.6006 22.911C27.6006 22.368 27.3856 21.876 27.0392 21.513C27.0512 21.582 27.0572 21.651 27.0572 21.723C27.0572 22.539 26.4002 23.199 25.588 23.199C25.1699 23.199 24.7937 23.022 24.5249 22.74C24.5219 22.737 24.4622 22.683 24.3816 22.608C23.4947 21.681 22.6407 21.66 22.4765 21.666C21.3268 21.672 20.3892 22.614 20.3892 23.769C20.3892 24.438 20.7087 25.074 21.2492 25.467C21.4313 25.617 22.2734 26.142 25.149 26.268C25.588 26.286 27.5588 26.475 28.2904 26.799C29.2609 27.255 29.9268 27.936 30.2672 28.806C30.4464 29.367 30.4344 29.832 30.2314 30.186C30.1836 30.273 30.1209 30.345 30.0582 30.414C29.9656 30.492 29.8492 30.54 29.7178 30.54C29.5386 30.54 29.3833 30.453 29.2878 30.318C29.2579 30.279 29.2131 30.186 29.2131 30.186H29.2101C29.031 29.787 28.801 29.355 28.5084 28.941C28.0903 28.308 27.5081 27.798 26.8183 27.471C26.7824 27.453 26.7496 27.438 26.7167 27.42C26.3614 27.264 25.9792 27.156 25.579 27.105C25.5671 27.102 25.5551 27.102 25.5432 27.099C25.3819 27.078 25.2147 27.066 25.0475 27.066H24.8833C23.2051 27.066 21.8404 28.425 21.8225 30.108C21.8225 30.114 21.8195 30.12 21.8195 30.123C21.8195 30.126 21.8195 30.126 21.8195 30.129C21.8195 30.132 21.8195 30.135 21.8195 30.141C21.8195 30.183 21.8255 30.219 21.8344 30.258C21.9031 31.011 22.5272 31.605 23.2947 31.605C23.2947 31.605 23.5753 31.608 25.1102 31.605C25.7612 31.605 25.8328 32.208 25.8328 32.208C22.4556 32.613 21.0133 31.932 19.5531 31.923H19.5471C19.0633 31.923 18.6453 32.19 18.4183 32.583C18.4153 32.583 18.281 32.85 18.2541 33.099C18.2451 33.144 18.2392 33.24 18.2392 33.24C18.2392 33.24 24.6474 33.387 31.399 34.452L31.4288 34.455C31.178 34.92 30.8555 35.322 30.4583 35.649Z" fill="#1D2939"/>
<path id="Vector_2" d="M21.5627 14.7C21.6792 14.382 21.6821 14.208 21.3417 13.836C21.724 13.701 21.8942 14.196 21.8942 14.196C21.9808 13.923 21.9569 13.683 21.9151 13.53C21.8135 13.152 21.3178 13.038 20.8729 13.365C20.6221 13.551 20.4549 13.938 20.1801 14.016C20.0428 14.055 19.0574 13.752 19.0574 13.752C19.2306 13.491 19.4963 13.191 19.5142 12.804C19.5322 12.408 19.144 11.793 18.5706 11.769C18.4094 11.763 18.284 11.79 18.1794 11.835C18.1914 11.805 18.2033 11.778 18.2153 11.745C18.2899 11.559 18.4094 11.268 18.5169 11.007C19.7292 11.616 21.4164 11.793 22.8856 11.211L22.7153 10.647C23.856 10.977 24.4055 10.917 25.0027 10.848L24.1069 10.008C26.3644 10.287 27.0333 10.023 27.7469 9.462L25.2416 8.604C27.6484 8.598 28.9444 7.803 29.9955 6.507L26.2479 6.963C29.2818 6.231 30.6524 4.677 30.8137 2.862C27.3378 5.817 21.8822 5.652 20.5653 5.652C20.1801 5.652 19.7292 6.015 19.7292 6.414C19.7292 7.035 20.2966 7.215 20.2966 8.07C20.2966 8.478 19.9054 8.883 19.4605 9.015L18.8633 8.619C18.9558 7.008 18.8035 5.925 18.1257 5.781C18.1257 5.781 18.9528 5.469 18.8573 4.695C18.06 5.01 17.624 4.944 16.7461 4.95C14.8678 4.95 14.8708 6.096 14.9216 6.363C15.1187 6.213 15.3844 6.132 15.7219 6.132C16.0205 6.132 16.1877 6.51 16.1877 6.801C16.1877 7.773 15.3785 8.133 14.7394 8.772H14.7305V8.775L14.4946 8.967C13.9899 8.928 13.4793 8.475 13.4793 8.016C13.4793 7.191 14.0287 7.017 14.0287 6.417C14.0287 6.033 13.5808 5.61 13.2225 5.682C11.401 6.051 5.71542 5.19 3.32653 2.988C3.4818 4.74 4.98083 6.21 7.91021 6.915L4.11486 6.504C5.13014 7.755 6.3843 8.52 8.7075 8.526L6.28576 9.354C6.97555 9.894 7.62055 10.152 9.8034 9.882L8.93743 10.692C9.51375 10.758 10.0453 10.818 11.1472 10.497L10.9829 11.043C12.3356 11.589 13.6913 11.565 15.047 10.944C15.1515 11.202 15.274 11.502 15.3635 11.73C15.3755 11.76 15.3904 11.79 15.4053 11.82C15.3068 11.781 15.1933 11.757 15.047 11.766C14.4737 11.79 14.0855 12.405 14.1034 12.801C14.1213 13.188 14.3841 13.485 14.5603 13.749C14.5603 13.749 13.5719 14.049 13.4375 14.013C13.1628 13.935 12.9956 13.548 12.7447 13.362C12.2998 13.035 11.8041 13.149 11.7026 13.527C11.6608 13.68 11.6369 13.923 11.7235 14.193C11.7235 14.193 11.8937 13.698 12.2759 13.833C11.9355 14.205 11.9385 14.379 12.0549 14.697C12.3087 14.226 12.9537 14.196 13.4166 14.493C14.1273 14.949 13.984 15.243 13.7481 15.693C14.4647 15.438 14.5603 15.216 14.1452 14.382L15.1605 13.98C15.2322 13.95 15.271 13.872 15.2501 13.797C15.1844 13.56 15.1157 13.086 15.6114 13.062C15.8622 13.05 15.9667 13.245 16.0324 13.464C16.0623 13.641 16.0832 13.83 16.0832 14.043C16.0832 15.189 15.0649 16.158 14.7006 16.365C15.2172 16.647 15.704 16.632 16.2265 16.263C16.334 16.686 16.4684 16.92 16.7969 17.178C17.1283 16.92 17.2717 16.686 17.3792 16.263C17.9017 16.632 18.3765 16.647 18.8931 16.365C18.5288 16.158 17.5106 15.192 17.5106 14.043C17.5106 13.917 17.5165 13.803 17.5285 13.692C17.5971 13.401 17.6718 13.044 18.0092 13.059C18.5019 13.083 18.4362 13.56 18.3706 13.794C18.3497 13.869 18.3855 13.947 18.4601 13.977L19.4754 14.379C19.0633 15.213 19.1559 15.435 19.8726 15.69C19.6367 15.24 19.4963 14.946 20.204 14.49C20.6639 14.199 21.3089 14.229 21.5627 14.7Z" fill="#1D2939"/>
</g>
<defs>
<clipPath id="clip0_16_286">
<rect width="33.4444" height="42" fill="white"/>
</clipPath>
</defs>
</svg>
